<svg width="12" height="12" viewBox="0 0 12 12" fill="none" xmlns="http://www.w3.org/2000/svg">
<path d="M0.431191 0.431191C0.64216 0.220286 0.928257 0.101807 1.22657 0.101807C1.52488 0.101807 1.81097 0.220286 2.02194 0.431191L5.99994 4.40919L9.97794 0.431191C10.1901 0.226263 10.4743 0.11287 10.7693 0.115433C11.0642 0.117996 11.3464 0.236311 11.555 0.444896C11.7636 0.65348 11.8819 0.935644 11.8844 1.23062C11.887 1.52559 11.7736 1.80976 11.5687 2.02194L7.59069 5.99994L11.5687 9.97794C11.7736 10.1901 11.887 10.4743 11.8844 10.7693C11.8819 11.0642 11.7636 11.3464 11.555 11.555C11.3464 11.7636 11.0642 11.8819 10.7693 11.8844C10.4743 11.887 10.1901 11.7736 9.97794 11.5687L5.99994 7.59069L2.02194 11.5687C1.80976 11.7736 1.52559 11.887 1.23062 11.8844C0.935644 11.8819 0.65348 11.7636 0.444896 11.555C0.236311 11.3464 0.117996 11.0642 0.115433 10.7693C0.11287 10.4743 0.226263 10.1901 0.431191 9.97794L4.40919 5.99994L0.431191 2.02194C0.220286 1.81097 0.101807 1.52488 0.101807 1.22657C0.101807 0.928257 0.220286 0.64216 0.431191 0.431191Z" fill="#475569"/>
</svg>
