<?xml version="1.0" standalone="no"?>
<!DOCTYPE svg PUBLIC "-//W3C//DTD SVG 20010904//EN"
 "http://www.w3.org/TR/2001/REC-SVG-20010904/DTD/svg10.dtd">
<svg version="1.0" xmlns="http://www.w3.org/2000/svg"
 width="512.000000pt" height="512.000000pt" viewBox="0 0 512.000000 512.000000"
 preserveAspectRatio="xMidYMid meet">

<g transform="translate(0.000000,512.000000) scale(0.100000,-0.100000)"
fill="#000000" stroke="none">
<path d="M3530 5104 c-94 -25 -161 -64 -230 -133 -132 -133 -150 -198 -150
-528 l0 -243 -598 0 c-669 0 -669 0 -743 -67 -70 -63 -84 -101 -84 -228 0 -89
4 -118 19 -149 24 -48 74 -99 115 -117 22 -10 32 -22 36 -44 5 -37 25 -328 25
-372 l0 -33 -102 0 c-57 0 -141 -4 -188 -10 -47 -5 -110 -11 -140 -15 l-55 -6
-98 131 -98 130 41 47 c22 26 56 78 76 117 158 322 -96 597 -444 480 -42 -14
-88 -32 -101 -41 -23 -15 -26 -14 -43 8 -58 73 -65 79 -106 79 -32 0 -45 -6
-61 -26 -30 -39 -26 -76 14 -129 l35 -46 -45 -55 c-177 -218 -153 -488 52
-584 117 -55 261 -46 404 26 l45 22 70 -90 c38 -50 72 -97 76 -103 5 -9 -19
-21 -80 -41 -48 -16 -148 -59 -222 -96 -365 -182 -618 -471 -707 -807 -22 -81
-26 -119 -27 -242 -1 -143 0 -146 29 -205 23 -45 43 -67 83 -94 l52 -34 0 -87
0 -86 -56 -12 c-81 -16 -140 -48 -194 -108 -122 -134 -113 -339 21 -465 27
-26 70 -54 94 -64 l45 -17 0 -91 c1 -175 33 -296 105 -390 l26 -35 -166 -3
-167 -3 -24 -28 c-32 -38 -31 -72 5 -108 l29 -29 2462 0 2462 0 29 29 c36 36
37 70 5 108 l-24 28 -237 3 -237 3 27 35 c40 52 83 152 94 219 5 33 58 748
118 1589 l108 1528 35 18 c86 45 132 122 138 236 8 147 -40 244 -146 296 l-47
23 -617 3 -618 3 0 179 c0 175 1 180 24 207 l24 28 394 5 393 5 48 28 c147 87
167 278 41 400 -68 66 -77 67 -558 66 -344 0 -442 -3 -486 -15z m935 -179 c32
-31 32 -75 1 -112 l-24 -28 -394 -5 c-307 -4 -398 -8 -418 -19 -57 -31 -92
-65 -117 -114 -27 -51 -28 -57 -31 -249 l-4 -198 -79 0 -79 0 0 248 0 247 29
60 c37 77 102 139 177 170 l59 25 428 0 428 0 24 -25z m416 -924 c27 -27 29
-35 29 -101 0 -62 -3 -74 -25 -95 l-24 -25 -1461 0 -1461 0 -24 25 c-22 21
-25 33 -25 97 1 74 9 95 45 116 15 8 398 11 1468 12 l1449 0 29 -29z m-3716
-98 c176 -82 15 -404 -242 -483 -85 -26 -138 -25 -193 3 -103 51 -104 180 -3
315 l25 33 42 -46 c49 -52 86 -59 130 -24 37 29 35 81 -5 134 l-30 40 39 17
c81 36 175 40 237 11z m3571 -315 c-3 -13 -10 -107 -17 -210 l-12 -188 -1308
0 -1309 0 0 28 c0 30 -17 267 -24 345 l-5 47 1340 0 1339 0 -4 -22z m-2695
-583 c361 -48 665 -188 892 -411 98 -97 156 -177 211 -295 65 -140 81 -211 81
-361 0 -119 -1 -129 -23 -150 l-23 -23 -1374 0 -1374 0 -23 23 c-20 20 -23 34
-26 122 -16 444 333 853 876 1027 110 35 113 36 127 17 7 -10 56 -73 107 -139
103 -133 134 -153 183 -121 33 22 49 57 41 89 -3 14 -37 66 -76 116 -38 49
-70 95 -70 100 0 22 322 26 471 6z m2649 -15 c0 -32 -126 -1804 -136 -1912
l-6 -68 -492 0 -492 0 0 78 c0 64 -4 87 -27 137 -49 106 -135 173 -253 197
l-54 11 0 87 0 88 43 25 c44 26 86 78 108 132 6 17 13 81 15 144 l4 113 57 28
c67 31 135 100 166 168 33 71 31 198 -4 272 -80 169 -285 244 -447 161 l-38
-19 -90 86 c-109 105 -219 185 -345 252 l-94 50 1043 0 1042 0 0 -30z m-1281
-503 c107 -71 89 -241 -30 -289 -13 -5 -19 0 -24 20 -12 49 -62 166 -94 220
-17 29 -31 55 -31 57 0 3 15 9 33 14 47 15 103 6 146 -22z m-349 -977 l0 -80
-560 -2 -560 -3 -314 -314 c-178 -178 -318 -311 -325 -307 -6 4 -130 143 -276
310 -149 171 -275 306 -288 310 -12 3 -59 6 -104 6 l-83 0 0 80 0 80 1255 0
1255 0 0 -80z m-2245 -410 c77 -89 142 -165 143 -170 5 -14 -572 -13 -620 0
-127 36 -170 191 -77 280 46 43 75 49 249 50 l166 0 139 -160z m2478 146 c44
-18 95 -78 103 -121 16 -85 -38 -171 -121 -194 -46 -12 -1595 -16 -1595 -4 0
4 73 81 162 170 l163 163 628 0 c504 0 634 -3 660 -14z m1242 -463 c-3 -32
-10 -110 -15 -173 -12 -140 -36 -196 -116 -269 -41 -38 -72 -56 -121 -71 -62
-19 -91 -20 -579 -20 l-514 0 40 62 c59 90 80 169 87 325 l6 132 31 12 c17 7
47 23 66 36 l35 23 542 0 543 0 -5 -57z m-3378 -74 c60 -63 89 -79 148 -79 58
0 76 9 147 76 l57 54 818 -2 818 -3 0 -115 c-1 -155 -17 -204 -100 -287 -52
-51 -72 -64 -129 -82 -67 -21 -80 -21 -1111 -21 -1019 0 -1044 0 -1108 20 -84
26 -164 96 -203 178 -24 49 -28 73 -32 169 -2 62 -2 119 1 128 6 13 47 15 326
15 l320 0 48 -51z"/>
<path d="M2009 2840 c-29 -17 -43 -66 -29 -100 15 -36 37 -50 80 -50 41 0 80
39 80 80 0 60 -77 101 -131 70z"/>
<path d="M1164 2746 c-54 -46 -30 -127 43 -142 62 -12 118 77 80 127 -33 43
-84 49 -123 15z"/>
<path d="M845 2509 c-52 -30 -62 -93 -20 -134 50 -51 135 -17 135 55 0 21 -8
47 -17 59 -22 25 -71 35 -98 20z"/>
<path d="M1329 2411 c-18 -14 -24 -29 -24 -61 0 -51 30 -80 80 -80 50 0 80 29
80 80 0 51 -30 80 -80 80 -18 0 -43 -9 -56 -19z"/>
<path d="M996 2159 c-48 -38 -26 -136 32 -140 62 -4 102 26 102 78 0 70 -78
106 -134 62z"/>
<path d="M593 2090 c-75 -30 -45 -160 37 -160 82 0 112 118 39 155 -32 17 -44
18 -76 5z"/>
<path d="M4049 2836 c-87 -31 -164 -102 -203 -185 -32 -71 -30 -197 5 -272 67
-142 217 -219 365 -189 114 24 195 86 243 189 22 47 26 70 26 141 0 73 -4 93
-28 142 -35 71 -110 140 -183 167 -63 24 -169 27 -225 7z m146 -157 c45 -12
89 -49 112 -93 21 -41 13 -124 -17 -166 -26 -36 -90 -70 -135 -70 -45 0 -109
34 -135 70 -35 49 -39 128 -10 177 26 44 50 63 100 80 45 15 39 15 85 2z"/>
<path d="M3789 1732 c-227 -118 -155 -452 102 -470 99 -7 206 60 245 154 20
48 17 150 -5 199 -24 52 -99 121 -147 134 -70 19 -137 14 -195 -17z m156 -148
c23 -9 48 -62 41 -90 -16 -63 -96 -85 -141 -39 -49 48 -17 135 50 135 18 0 41
-3 50 -6z"/>
</g>
</svg>
